<?xml version="1.0" encoding="UTF-8" standalone="no"?>
<!DOCTYPE svg PUBLIC "-//W3C//DTD SVG 1.1//EN" "http://www.w3.org/Graphics/SVG/1.1/DTD/svg11.dtd">
<svg width="100%" height="100%" viewBox="0 0 800 800" version="1.1" xmlns="http://www.w3.org/2000/svg" xmlns:xlink="http://www.w3.org/1999/xlink" xml:space="preserve" xmlns:serif="http://www.serif.com/" style="fill-rule:evenodd;clip-rule:evenodd;stroke-linejoin:round;stroke-miterlimit:2;">
    <g id="Vivid.JS">
        <g id="Vivid-Icons">
            <g id="Icons">
                <g id="clock">
                    <g>
                        <path id="Oval" d="M400,0C620.766,0 800,179.234 800,400C800,620.766 620.766,800 400,800C179.234,800 -0,620.766 -0,400C-0,179.234 179.234,0 400,0ZM400,88.889C228.293,88.889 88.889,228.293 88.889,400C88.889,571.707 228.293,711.111 400,711.111C571.707,711.111 711.111,571.707 711.111,400C711.111,228.293 571.707,88.889 400,88.889Z" style="fill:rgb(251,177,89);"/>
                        <path id="Shape" d="M333.333,222.222L333.333,466.667L533.333,466.667L533.333,400L400,400L400,222.222L333.333,222.222Z" style="fill:rgb(251,177,89);fill-rule:nonzero;"/>
                    </g>
                </g>
            </g>
        </g>
    </g>
</svg>
