<?xml version="1.0" encoding="UTF-8" standalone="no"?>
<!DOCTYPE svg PUBLIC "-//W3C//DTD SVG 1.1//EN" "http://www.w3.org/Graphics/SVG/1.1/DTD/svg11.dtd">
<svg width="100%" height="100%" viewBox="0 0 800 800" version="1.1" xmlns="http://www.w3.org/2000/svg" xmlns:xlink="http://www.w3.org/1999/xlink" xml:space="preserve" xmlns:serif="http://www.serif.com/" style="fill-rule:evenodd;clip-rule:evenodd;stroke-linejoin:round;stroke-miterlimit:2;">
    <g>
        <path d="M634.165,262.941C628.038,267.491 622.005,272.338 616.235,277.349C608.386,284.165 607.548,296.054 614.366,303.904C618.088,308.19 623.323,310.385 628.586,310.385C632.962,310.385 637.358,308.868 640.921,305.773C645.972,301.387 651.25,297.146 656.609,293.167C664.958,286.97 666.699,275.178 660.502,266.832C654.301,258.487 642.512,256.744 634.165,262.941Z" style="fill-rule:nonzero;"/>
        <path d="M788.34,84.678C791.845,94.467 786.753,105.242 776.959,108.747L757.599,115.682C759.846,125.504 761.136,135.686 761.313,146.135C761.97,185.634 746.982,223.467 719.851,251.71C727.657,279.743 731.702,308.759 731.894,338.132C732.425,426.193 698.331,509.282 635.89,572.1C595.934,612.297 547.599,640.914 494.903,656.325L534.524,775.218C537.81,785.082 532.479,795.742 522.616,799.029C520.641,799.688 518.636,800 516.663,800C508.782,800 501.435,795.01 498.807,787.122L458.051,664.824C448.251,666.49 438.338,667.717 428.337,668.493L463.901,775.22C467.188,785.082 461.857,795.742 451.993,799.029C450.02,799.688 448.012,800 446.041,800C438.159,800 430.812,795.012 428.184,787.122L388.891,669.206C351.226,667.678 314.545,659.838 279.672,645.802C209.307,617.483 130.677,620.375 63.936,653.731C47.531,661.946 28.535,657.31 17.747,642.465C6.961,627.618 8.424,608.12 21.305,595.053L124.687,490.074C129.873,484.6 280.229,325.83 385.314,212.315C420.952,173.814 453.787,127.966 482.91,76.049C508.97,29.578 558.206,0.44 611.403,0.004C611.8,0.002 612.201,0 612.599,0C669.688,0 719.672,32.667 744.565,80.362L764.272,73.305C774.06,69.798 784.837,74.89 788.34,84.678ZM662.505,147.067C662.505,117.485 638.438,93.418 608.856,93.418C579.274,93.418 555.208,117.485 555.208,147.067C555.208,176.649 579.274,200.716 608.856,200.716C638.438,200.716 662.505,176.649 662.505,147.067Z" style="fill:rgb(251,177,89);fill-rule:nonzero;"/>
    </g>
</svg>
