<?xml version="1.0" encoding="UTF-8" standalone="no"?>
<!DOCTYPE svg PUBLIC "-//W3C//DTD SVG 1.1//EN" "http://www.w3.org/Graphics/SVG/1.1/DTD/svg11.dtd">
<svg width="100%" height="100%" viewBox="0 0 100 100" version="1.1" xmlns="http://www.w3.org/2000/svg" xmlns:xlink="http://www.w3.org/1999/xlink" xml:space="preserve" xmlns:serif="http://www.serif.com/" style="fill-rule:evenodd;clip-rule:evenodd;stroke-linejoin:round;stroke-miterlimit:2;">
    <path d="M20.105,16.12L20.105,9.892C20.105,7.539 22.016,5.628 24.37,5.628C26.723,5.628 28.634,7.539 28.634,9.892L28.634,16.12L71.366,16.12L71.366,9.892C71.366,7.539 73.277,5.628 75.63,5.628C77.984,5.628 79.895,7.539 79.895,9.892L79.895,16.12L83.336,16.12C88.297,16.12 92.325,20.148 92.325,25.108L92.325,88.842C92.325,93.802 88.297,97.83 83.336,97.83L16.664,97.83C11.703,97.83 7.675,93.802 7.675,88.842L7.675,25.108C7.675,20.148 11.703,16.12 16.664,16.12L20.105,16.12ZM20.105,85.401L79.895,85.401L79.895,28.549C78.397,28.549 76.961,28.284 75.631,27.798C74.301,28.284 72.864,28.549 71.366,28.549L28.634,28.549C27.136,28.549 25.699,28.284 24.369,27.798C23.039,28.284 21.603,28.549 20.105,28.549L20.105,85.401Z" style="fill:rgb(251,177,89);"/>
    <g transform="matrix(1,0,0,0.7662,0,0.760467)">
        <rect x="13.337" y="29.526" width="75.658" height="20.474" style="fill:rgb(251,177,89);"/>
    </g>
</svg>
